<mxfile host="app.diagrams.net" modified="2022-09-09T07:19:21.385Z" agent="5.0 (Windows NT 6.3; Win64; x64) AppleWebKit/537.36 (KHTML, like Gecko) Chrome/105.0.0.0 Safari/537.36" etag="oREoKxc5MkIyFMuUMrG-" version="20.3.0" type="github">
  <diagram id="75vvSjuyPExEmgrXF6YK" name="Страница 1">
    <mxGraphModel dx="3076" dy="794" grid="1" gridSize="10" guides="1" tooltips="1" connect="1" arrows="1" fold="1" page="1" pageScale="1" pageWidth="827" pageHeight="1169" math="0" shadow="0">
      <root>
        <mxCell id="0" />
        <mxCell id="1" parent="0" />
        <mxCell id="i-rLEYxNE8JiVRypy1al-12" value="" style="ellipse;whiteSpace=wrap;html=1;" vertex="1" parent="1">
          <mxGeometry x="-1160" y="120" width="120" height="80" as="geometry" />
        </mxCell>
        <mxCell id="i-rLEYxNE8JiVRypy1al-13" value="Читать новости" style="text;html=1;strokeColor=none;fillColor=none;align=center;verticalAlign=middle;whiteSpace=wrap;rounded=0;" vertex="1" parent="1">
          <mxGeometry x="-1130" y="145" width="60" height="30" as="geometry" />
        </mxCell>
        <mxCell id="i-rLEYxNE8JiVRypy1al-14" value="Аноним" style="shape=umlActor;verticalLabelPosition=bottom;verticalAlign=top;html=1;outlineConnect=0;" vertex="1" parent="1">
          <mxGeometry x="-1120" y="240" width="40" height="80" as="geometry" />
        </mxCell>
        <mxCell id="i-rLEYxNE8JiVRypy1al-17" value="" style="ellipse;whiteSpace=wrap;html=1;" vertex="1" parent="1">
          <mxGeometry x="-1280" y="320" width="120" height="80" as="geometry" />
        </mxCell>
        <mxCell id="i-rLEYxNE8JiVRypy1al-18" value="Искать новости" style="text;html=1;strokeColor=none;fillColor=none;align=center;verticalAlign=middle;whiteSpace=wrap;rounded=0;" vertex="1" parent="1">
          <mxGeometry x="-1250" y="345" width="60" height="30" as="geometry" />
        </mxCell>
        <mxCell id="i-rLEYxNE8JiVRypy1al-19" value="" style="ellipse;whiteSpace=wrap;html=1;" vertex="1" parent="1">
          <mxGeometry x="-1040" y="320" width="120" height="80" as="geometry" />
        </mxCell>
        <mxCell id="i-rLEYxNE8JiVRypy1al-20" value="Авторизоваться" style="text;html=1;strokeColor=none;fillColor=none;align=center;verticalAlign=middle;whiteSpace=wrap;rounded=0;" vertex="1" parent="1">
          <mxGeometry x="-1010" y="345" width="60" height="30" as="geometry" />
        </mxCell>
        <mxCell id="i-rLEYxNE8JiVRypy1al-22" value="" style="endArrow=none;html=1;rounded=0;exitX=1;exitY=0.3333333333333333;exitDx=0;exitDy=0;exitPerimeter=0;entryX=0.5;entryY=0;entryDx=0;entryDy=0;" edge="1" parent="1" source="i-rLEYxNE8JiVRypy1al-14" target="i-rLEYxNE8JiVRypy1al-19">
          <mxGeometry width="50" height="50" relative="1" as="geometry">
            <mxPoint x="-730" y="320" as="sourcePoint" />
            <mxPoint x="-680" y="270" as="targetPoint" />
          </mxGeometry>
        </mxCell>
        <mxCell id="i-rLEYxNE8JiVRypy1al-23" value="" style="endArrow=none;html=1;rounded=0;exitX=0;exitY=0.3333333333333333;exitDx=0;exitDy=0;exitPerimeter=0;entryX=0.5;entryY=0;entryDx=0;entryDy=0;" edge="1" parent="1" source="i-rLEYxNE8JiVRypy1al-14" target="i-rLEYxNE8JiVRypy1al-17">
          <mxGeometry width="50" height="50" relative="1" as="geometry">
            <mxPoint x="-730" y="320" as="sourcePoint" />
            <mxPoint x="-680" y="270" as="targetPoint" />
          </mxGeometry>
        </mxCell>
        <mxCell id="i-rLEYxNE8JiVRypy1al-24" value="" style="endArrow=none;html=1;rounded=0;exitX=0.5;exitY=0;exitDx=0;exitDy=0;exitPerimeter=0;entryX=0.5;entryY=1;entryDx=0;entryDy=0;" edge="1" parent="1" source="i-rLEYxNE8JiVRypy1al-14" target="i-rLEYxNE8JiVRypy1al-12">
          <mxGeometry width="50" height="50" relative="1" as="geometry">
            <mxPoint x="-730" y="320" as="sourcePoint" />
            <mxPoint x="-680" y="270" as="targetPoint" />
          </mxGeometry>
        </mxCell>
      </root>
    </mxGraphModel>
  </diagram>
</mxfile>
